King Kong Escapes (1968) (USA) DVD Rip



General
Complete name                    : King Kong Escapes (1968).avi
Format                           : AVI
Format/Info                      : Audio Video Interleave
File size                        : 1.16 GiB
Duration                         : 1h 36mn
Overall bit rate                 : 1 724 Kbps
Movie name                       : KINGKONGESCAPES.Title3.DVDRip
Writing application              : Lavf52.33.0
Original source form/Name        : KINGKONGESCAPES

Video
ID                               : 0
Format                           : AVC
Format/Info                      : Advanced Video Codec
Format profile                   : Baseline@L1.3
Format settings, CABAC           : No
Format settings, ReFrames        : 1 frame
Codec ID                         : H264
Duration                         : 1h 36mn
Bit rate                         : 1520 Kbps
Nominal bit rate                 : 1500 Kbps
Width                            : 640 pixels
Height                           : 274 pixels
Display aspect ratio             : 2.35:1
Frame rate                       : 29.970 fps
Resolution                       : 24 bits
Colorimetry                      : 4:2:0
Scan type                        : Progressive
Bits/(Pixel*Frame)               : 0.289
Stream size                      : 1.02 GiB (88%)
Writing library                  : x264 core 67


Audio
ID                               : 1
Format                           : AC-3
Format/Info                      : Audio Coding 3
Codec ID                         : 2000
Duration                         : 1h 36mn
Bit rate mode                    : Constant
Bit rate                         : 192 Kbps
Channel(s)                       : 2 channels
Channel positions                : L R
Sampling rate                    : 48.0 KHz
Stream size                      : 132 MiB (11%)
Alignment                        : Aligned on interleaves
Interleave, duration             : 32 ms (0.96 video frame)
Interleave, preload duration     : 32 ms



